# xmcd
#
# Track frame offsets:
#	150
#	11889
#	23404
#	35132
#	48762
#	65885
#	78908
#	95444
#	107230
#	123753
#	143235
#	155770
#
# Disc length: 2275 seconds
#
# Revision: 1
# Processed by: cddbd v1.5.2PL0 Copyright (c) Steve Scherf et al.
# Submitted via: audiograbber 1.83.01
#
DISCID=9c08e10c
DTITLE=In The Tradition - Poison Heart Poison Pen
DYEAR=2007
DGENRE=Bluegrass
TTITLE0=Poison Heart Poison Pen
TTITLE1=Best Female Actress
TTITLE2=Souvaniers
TTITLE3=On My Mind
TTITLE4=Bluest Man In Town
TTITLE5=Room At The Top of The Stairs
TTITLE6=Silver Wings
TTITLE7=Shady Grove
TTITLE8=Ramblin Letters
TTITLE9=Where Corn Won't Grow
TTITLE10=Old Fashioned Preacher
TTITLE11=Nashville Blues
EXTD=
EXTT0=
EXTT1=
EXTT2=
EXTT3=
EXTT4=
EXTT5=
EXTT6=
EXTT7=
EXTT8=
EXTT9=
EXTT10=
EXTT11=
PLAYORDER=
